<svg version="1.1" id="Layer_1" xmlns="http://www.w3.org/2000/svg" xmlns:xlink="http://www.w3.org/1999/xlink" x="0px" y="0px"
	 width="100%" viewBox="0 0 1280 1280" enable-background="new 0 0 1280 1280" xml:space="preserve">
<path fill="#000000" opacity="1.000000" stroke="none" 
	d="
M1190.000000,1281.000000 
	C793.333313,1281.000000 397.166656,1281.000000 1.000000,1281.000000 
	C1.000000,854.333313 1.000000,427.666656 1.000000,1.000000 
	C427.666656,1.000000 854.333313,1.000000 1281.000000,1.000000 
	C1281.000000,427.666656 1281.000000,854.333313 1281.000000,1281.000000 
	C1250.833374,1281.000000 1220.666626,1281.000000 1190.000000,1281.000000 
M245.206482,655.322815 
	C245.458878,655.544067 245.711288,655.765320 246.341370,656.584351 
	C259.088226,682.256042 280.058838,698.026062 306.906250,706.540405 
	C310.286926,707.612549 314.066742,707.426025 318.788849,707.947083 
	C310.001007,685.837402 301.796844,665.321045 293.688446,644.766968 
	C281.052185,612.735229 268.506989,580.667542 255.808411,548.660583 
	C255.144150,546.986267 253.693863,545.193542 252.128876,544.376282 
	C241.544128,538.848389 230.654541,538.019897 219.449387,542.691711 
	C215.563278,544.311951 213.032288,546.632446 211.422287,550.748047 
	C192.212479,599.853271 172.810822,648.883423 153.478409,697.940735 
	C152.296616,700.939636 151.274979,704.001709 150.032364,707.439575 
	C152.308350,707.571655 153.794373,707.818420 155.251785,707.703247 
	C157.234375,707.546631 159.221725,707.228760 161.161118,706.781189 
	C178.914444,702.683655 193.554230,693.333740 205.867218,680.114014 
	C213.283936,672.151123 219.519455,663.424683 223.771912,652.883606 
	C225.213364,651.236572 226.654816,649.589600 228.636597,648.352478 
	C230.537704,651.151978 232.438828,653.951538 234.076569,656.363220 
	C236.296402,653.293701 238.632477,650.063416 241.230713,647.477722 
	C242.199844,648.956177 243.168976,650.434570 244.017685,652.010620 
	C244.017685,652.010620 244.126633,651.901978 244.023773,652.610779 
	C244.433563,653.354065 244.843353,654.097412 245.096146,654.952637 
	C245.096146,654.952637 245.214188,654.800171 245.206482,655.322815 
M656.341431,663.045959 
	C661.082520,646.140564 665.823608,629.235107 670.653625,612.012390 
	C663.055786,612.012390 656.261597,612.012390 649.095520,612.012390 
	C642.263245,637.987610 635.437805,663.936829 628.612366,689.886047 
	C628.248474,689.895630 627.884521,689.905212 627.520630,689.914795 
	C620.822571,663.975891 614.124451,638.036987 607.421448,612.078857 
	C598.216187,612.078857 589.257690,612.078857 580.292114,612.078857 
	C573.493774,638.468262 566.743469,664.671326 559.611694,692.355164 
	C552.340881,664.584595 545.464233,638.319702 538.614075,612.156128 
	C530.927246,612.156128 523.722839,612.156128 516.318298,612.156128 
	C525.172424,643.969604 533.937805,675.464417 542.714050,706.998352 
	C551.931213,706.998352 560.759399,706.851501 569.577637,707.083984 
	C572.376770,707.157776 573.361572,705.851501 573.938538,703.653442 
	C578.262939,687.178589 582.553406,670.694946 586.878662,654.220337 
	C588.908142,646.490234 590.990967,638.774109 593.049561,631.051697 
	C593.325562,631.077026 593.601562,631.102295 593.877502,631.127625 
	C600.581238,656.420471 607.284912,681.713257 613.986694,706.998840 
	C623.356995,706.998840 632.187317,707.106445 641.009399,706.884399 
	C642.355835,706.850403 644.525085,705.541748 644.858276,704.398499 
	C648.783752,690.926697 652.431641,677.373962 656.341431,663.045959 
M764.227173,613.681824 
	C757.235229,617.419617 751.875977,622.982910 748.870972,630.133057 
	C746.090515,636.749023 743.782715,643.789856 742.732605,650.861328 
	C740.282898,667.357910 742.994751,683.145569 753.856628,696.310974 
	C771.244507,717.386719 800.586304,712.971130 811.653870,687.966858 
	C812.607910,685.811523 813.422424,683.594421 814.301758,681.406006 
	C814.588440,681.470398 814.875183,681.534729 815.161926,681.599060 
	C815.161926,689.977539 815.161926,698.356018 815.161926,706.776855 
	C822.481384,706.776855 829.400574,706.776855 836.494629,706.776855 
	C836.494629,664.355957 836.494629,622.165833 836.494629,579.885986 
	C829.198181,579.885986 822.175842,579.885986 814.763428,579.885986 
	C814.763428,599.224976 814.763428,618.177856 814.763428,638.303528 
	C804.502319,608.030396 782.007629,605.086792 764.227173,613.681824 
M860.337524,699.153503 
	C877.309204,711.738281 895.459534,712.965820 914.166321,703.903870 
	C925.726318,698.304138 935.320984,684.017334 934.638916,674.998108 
	C929.166504,674.998108 923.677551,675.121277 918.198486,674.942017 
	C915.746277,674.861877 914.566650,675.631836 913.261841,677.836365 
	C911.283997,681.177917 908.934265,684.730774 905.838135,686.907227 
	C889.001648,698.742615 867.494690,687.666931 865.253784,665.826294 
	C888.707397,665.826294 912.118347,665.826294 935.469727,665.826294 
	C938.635681,638.517822 924.937439,610.546753 892.797974,609.434998 
	C877.935730,608.920837 865.073059,613.267883 854.993835,624.751099 
	C839.402222,642.514709 838.915527,680.968323 860.337524,699.153503 
M1061.552612,633.485596 
	C1061.552612,615.571045 1061.552612,597.656494 1061.552612,579.859497 
	C1053.860352,579.859497 1046.982056,579.859497 1040.074463,579.859497 
	C1040.074463,622.359436 1040.074463,664.446777 1040.074463,706.639587 
	C1047.256104,706.639587 1054.268799,706.639587 1061.535156,706.639587 
	C1061.535156,694.266174 1061.535156,682.255737 1061.535156,669.475586 
	C1062.706299,670.361572 1063.347290,670.774292 1063.905029,671.279236 
	C1075.485596,681.763428 1087.021729,692.297180 1098.664917,702.711426 
	C1100.562866,704.409058 1102.865356,706.690735 1105.083618,706.811462 
	C1113.815186,707.286255 1122.588013,707.005920 1132.366455,707.005920 
	C1114.329712,690.984070 1097.086182,675.666748 1079.135254,659.721130 
	C1095.300903,643.537659 1111.059082,627.762024 1126.915649,611.888062 
	C1119.827759,611.888062 1112.677246,611.687256 1105.550171,612.008057 
	C1103.360229,612.106628 1100.707031,613.091614 1099.168701,614.594666 
	C1091.676880,621.914795 1084.514771,629.571411 1077.188354,637.062439 
	C1072.277954,642.083252 1067.287842,647.026184 1061.552002,652.789001 
	C1061.552002,645.925903 1061.552002,640.201965 1061.552612,633.485596 
M494.673584,614.839600 
	C477.531403,607.156189 460.084747,607.085938 443.073486,614.442200 
	C427.280121,621.271912 422.256042,639.732239 431.900635,652.542847 
	C436.630341,658.825195 443.605225,661.513184 450.916077,663.193604 
	C461.987274,665.738281 473.180817,667.757874 484.229095,670.391846 
	C489.013794,671.532471 492.601196,674.533386 492.806030,680.065063 
	C492.978027,684.710571 490.157593,688.744812 484.191925,690.143860 
	C478.472015,691.485291 472.438721,691.878113 466.533203,691.958923 
	C454.639801,692.121643 449.436798,688.013855 446.261963,676.920898 
	C439.335175,676.920898 432.449341,676.920898 425.571198,676.920898 
	C425.882996,688.991699 430.352997,698.632568 441.261169,703.414185 
	C448.240845,706.473755 456.038727,708.351501 463.639526,709.156616 
	C476.614929,710.531067 489.593109,709.498169 501.258575,702.724854 
	C510.594910,697.303833 514.568298,688.790222 514.077209,678.072632 
	C513.620544,668.104980 508.599823,660.893982 499.699188,657.227600 
	C492.603424,654.304626 484.907532,652.749573 477.386871,650.973267 
	C470.633209,649.378113 463.692902,648.564026 456.954742,646.915588 
	C452.614136,645.853760 448.622711,643.285278 448.440735,638.339722 
	C448.274261,633.815552 451.515045,630.987610 455.472565,628.948303 
	C469.654083,621.640991 484.852997,627.124512 490.230286,641.634766 
	C496.993927,641.634766 503.772614,641.634766 510.855377,641.634766 
	C510.833191,629.556335 505.624695,620.873779 494.673584,614.839600 
M391.880798,609.810059 
	C372.008575,607.427551 360.166748,617.392944 352.839142,634.950134 
	C352.839142,627.419922 352.839142,619.889709 352.839142,612.139526 
	C345.363892,612.139526 338.301392,612.139526 331.205200,612.139526 
	C331.205200,643.807434 331.205200,675.210327 331.205200,706.624268 
	C338.461365,706.624268 345.485596,706.624268 352.633331,706.624268 
	C352.633331,690.424927 352.535187,674.615173 352.696259,658.808044 
	C352.741547,654.362488 353.168396,649.844971 354.081787,645.499451 
	C356.149292,635.663269 364.104431,629.387207 375.563171,628.011719 
	C383.262482,627.087524 392.048645,631.359619 395.078766,638.846252 
	C397.126526,643.905579 398.107483,649.683044 398.248718,655.173157 
	C398.646881,670.651917 398.365082,686.148132 398.351685,701.637512 
	C398.350189,703.374756 398.351471,705.111938 398.351471,706.669434 
	C406.045166,706.669434 412.954712,706.669434 419.854675,706.669434 
	C419.854675,686.521545 419.978973,666.712769 419.758911,646.907837 
	C419.709808,642.488770 418.932831,637.938293 417.658844,633.698364 
	C413.889618,621.154602 406.773987,611.811646 391.880798,609.810059 
M987.528198,609.244568 
	C976.880554,609.718018 966.999939,612.293091 958.354858,618.975464 
	C940.254150,632.966675 936.115417,662.665771 945.873840,683.600098 
	C956.211487,705.776672 982.353516,715.505310 1005.829041,706.347595 
	C1022.159973,699.976990 1030.003052,687.334045 1033.038086,670.586670 
	C1025.484375,670.586670 1018.409119,670.586670 1011.351257,670.586670 
	C1011.129028,671.535645 1011.019958,672.187988 1010.823425,672.812805 
	C1007.391052,683.723694 1000.310852,689.862244 990.906921,690.095459 
	C976.741760,690.446716 969.420410,685.908508 964.977661,673.869995 
	C961.638550,664.822021 961.884399,655.488770 964.327393,646.440369 
	C967.388062,635.104553 976.713440,628.292847 987.970581,628.009094 
	C998.929138,627.732727 1007.216370,634.375244 1010.942749,646.429932 
	C1011.172363,647.172729 1011.356018,647.929810 1011.547913,648.631775 
	C1018.822876,648.631775 1025.753418,648.631775 1033.004028,648.631775 
	C1031.549072,638.758484 1028.090210,630.168030 1021.514648,622.969177 
	C1012.642944,613.256653 1001.196228,609.683777 987.528198,609.244568 
M677.200134,678.499939 
	C677.200134,687.934387 677.200134,697.368835 677.200134,706.700439 
	C684.766907,706.700439 691.688416,706.700439 699.028748,706.700439 
	C699.028748,689.924744 698.842896,673.453064 699.084534,656.987610 
	C699.297363,642.483765 708.215881,633.644653 722.692688,632.893433 
	C727.770935,632.629944 732.843201,632.251404 737.962402,631.922607 
	C737.962402,625.147278 737.962402,618.689270 737.962402,612.254395 
	C718.617737,610.142700 708.719666,617.165894 698.807129,640.827271 
	C698.807129,630.349792 698.807129,621.210388 698.807129,612.233032 
	C691.320984,612.233032 684.406921,612.233032 677.200623,612.233032 
	C677.200623,634.222473 677.200623,655.861145 677.200134,678.499939 
z"/>
<path fill="#2762E3" opacity="1.000000" stroke="none" 
	d="
M223.091995,653.012329 
	C219.519455,663.424683 213.283936,672.151123 205.867218,680.114014 
	C193.554230,693.333740 178.914444,702.683655 161.161118,706.781189 
	C159.221725,707.228760 157.234375,707.546631 155.251785,707.703247 
	C153.794373,707.818420 152.308350,707.571655 150.032364,707.439575 
	C151.274979,704.001709 152.296616,700.939636 153.478409,697.940735 
	C172.810822,648.883423 192.212479,599.853271 211.422287,550.748047 
	C213.032288,546.632446 215.563278,544.311951 219.449387,542.691711 
	C230.654541,538.019897 241.544128,538.848389 252.128876,544.376282 
	C253.693863,545.193542 255.144150,546.986267 255.808411,548.660583 
	C268.506989,580.667542 281.052185,612.735229 293.688446,644.766968 
	C301.796844,665.321045 310.001007,685.837402 318.788849,707.947083 
	C314.066742,707.426025 310.286926,707.612549 306.906250,706.540405 
	C280.058838,698.026062 259.088226,682.256042 246.139465,656.028564 
	C245.696426,655.248596 245.455307,655.024353 245.214188,654.800171 
	C245.214188,654.800171 245.096146,654.952637 245.176819,654.564819 
	C244.880524,653.418701 244.503571,652.660339 244.126617,651.901978 
	C244.126633,651.901978 244.017685,652.010620 244.087708,651.558655 
	C244.787140,648.729370 245.416565,646.352051 246.025146,643.989075 
	C246.004303,644.003418 245.963913,644.033875 246.348679,643.972229 
	C250.483994,642.742126 254.234558,641.573608 257.985107,640.405151 
	C257.974945,640.109314 257.964783,639.813477 257.954620,639.517578 
	C254.622131,638.669983 251.289642,637.822388 247.977875,636.988770 
	C247.998596,637.002747 248.039307,637.031799 247.898544,636.709412 
	C244.059265,634.393372 242.586014,631.353333 242.474991,627.105774 
	C242.275742,619.483948 241.662506,611.868530 241.068405,604.262451 
	C239.764160,587.565125 238.403534,570.871826 236.913773,554.190430 
	C236.813889,553.071960 235.439804,552.067261 234.658340,551.009644 
	C233.714340,552.051147 232.181442,552.973083 231.941162,554.157410 
	C231.318970,557.223999 231.236694,560.403931 230.991287,563.542664 
	C229.285080,585.364685 227.751953,607.202881 225.675552,628.989441 
	C225.438721,631.474487 222.586823,634.285461 220.222504,635.849182 
	C217.162430,637.872986 213.373840,638.795349 208.860199,640.609375 
	C212.636612,641.193848 215.343491,641.612732 218.024719,642.016296 
	C217.999054,642.000916 217.947113,641.971191 218.170685,642.236938 
	C224.900925,646.025635 225.209534,646.716003 223.091995,653.012329 
z"/>
<path fill="#FBFBFB" opacity="1.000000" stroke="none" 
	d="
M656.247070,663.444275 
	C652.431641,677.373962 648.783752,690.926697 644.858276,704.398499 
	C644.525085,705.541748 642.355835,706.850403 641.009399,706.884399 
	C632.187317,707.106445 623.356995,706.998840 613.986694,706.998840 
	C607.284912,681.713257 600.581238,656.420471 593.877502,631.127625 
	C593.601562,631.102295 593.325562,631.077026 593.049561,631.051697 
	C590.990967,638.774109 588.908142,646.490234 586.878662,654.220337 
	C582.553406,670.694946 578.262939,687.178589 573.938538,703.653442 
	C573.361572,705.851501 572.376770,707.157776 569.577637,707.083984 
	C560.759399,706.851501 551.931213,706.998352 542.714050,706.998352 
	C533.937805,675.464417 525.172424,643.969604 516.318298,612.156128 
	C523.722839,612.156128 530.927246,612.156128 538.614075,612.156128 
	C545.464233,638.319702 552.340881,664.584595 559.611694,692.355164 
	C566.743469,664.671326 573.493774,638.468262 580.292114,612.078857 
	C589.257690,612.078857 598.216187,612.078857 607.421448,612.078857 
	C614.124451,638.036987 620.822571,663.975891 627.520630,689.914795 
	C627.884521,689.905212 628.248474,689.895630 628.612366,689.886047 
	C635.437805,663.936829 642.263245,637.987610 649.095520,612.012390 
	C656.261597,612.012390 663.055786,612.012390 670.653625,612.012390 
	C665.823608,629.235107 661.082520,646.140564 656.247070,663.444275 
z"/>
<path fill="#FAFAFA" opacity="1.000000" stroke="none" 
	d="
M764.531250,613.467896 
	C782.007629,605.086792 804.502319,608.030396 814.763428,638.303528 
	C814.763428,618.177856 814.763428,599.224976 814.763428,579.885986 
	C822.175842,579.885986 829.198181,579.885986 836.494629,579.885986 
	C836.494629,622.165833 836.494629,664.355957 836.494629,706.776855 
	C829.400574,706.776855 822.481384,706.776855 815.161926,706.776855 
	C815.161926,698.356018 815.161926,689.977539 815.161926,681.599060 
	C814.875183,681.534729 814.588440,681.470398 814.301758,681.406006 
	C813.422424,683.594421 812.607910,685.811523 811.653870,687.966858 
	C800.586304,712.971130 771.244507,717.386719 753.856628,696.310974 
	C742.994751,683.145569 740.282898,667.357910 742.732605,650.861328 
	C743.782715,643.789856 746.090515,636.749023 748.870972,630.133057 
	C751.875977,622.982910 757.235229,617.419617 764.531250,613.467896 
M792.080566,628.005554 
	C772.763794,627.177307 765.750916,638.266052 764.326294,651.770996 
	C763.654053,658.143311 763.941833,664.820374 765.070007,671.131348 
	C766.750793,680.533386 772.049988,687.671021 781.927490,689.874817 
	C792.498230,692.233398 802.340271,690.544678 808.960754,681.188782 
	C816.169556,671.001587 816.154785,659.263733 813.555481,647.643494 
	C811.123352,636.770630 803.993164,630.179260 792.080566,628.005554 
z"/>
<path fill="#FBFBFB" opacity="1.000000" stroke="none" 
	d="
M860.029907,698.972534 
	C838.915527,680.968323 839.402222,642.514709 854.993835,624.751099 
	C865.073059,613.267883 877.935730,608.920837 892.797974,609.434998 
	C924.937439,610.546753 938.635681,638.517822 935.469727,665.826294 
	C912.118347,665.826294 888.707397,665.826294 865.253784,665.826294 
	C867.494690,687.666931 889.001648,698.742615 905.838135,686.907227 
	C908.934265,684.730774 911.283997,681.177917 913.261841,677.836365 
	C914.566650,675.631836 915.746277,674.861877 918.198486,674.942017 
	C923.677551,675.121277 929.166504,674.998108 934.638916,674.998108 
	C935.320984,684.017334 925.726318,698.304138 914.166321,703.903870 
	C895.459534,712.965820 877.309204,711.738281 860.029907,698.972534 
M912.053284,650.985657 
	C915.661560,649.891296 914.078186,647.366089 913.448914,645.339172 
	C908.334290,628.864990 897.809692,625.945007 883.834473,628.139832 
	C874.276550,629.640930 865.265930,640.157349 866.242310,650.996887 
	C881.178284,650.996887 896.151611,650.996887 912.053284,650.985657 
z"/>
<path fill="#FAFAFA" opacity="1.000000" stroke="none" 
	d="
M1061.552246,633.981812 
	C1061.552002,640.201965 1061.552002,645.925903 1061.552002,652.789001 
	C1067.287842,647.026184 1072.277954,642.083252 1077.188354,637.062439 
	C1084.514771,629.571411 1091.676880,621.914795 1099.168701,614.594666 
	C1100.707031,613.091614 1103.360229,612.106628 1105.550171,612.008057 
	C1112.677246,611.687256 1119.827759,611.888062 1126.915649,611.888062 
	C1111.059082,627.762024 1095.300903,643.537659 1079.135254,659.721130 
	C1097.086182,675.666748 1114.329712,690.984070 1132.366455,707.005920 
	C1122.588013,707.005920 1113.815186,707.286255 1105.083618,706.811462 
	C1102.865356,706.690735 1100.562866,704.409058 1098.664917,702.711426 
	C1087.021729,692.297180 1075.485596,681.763428 1063.905029,671.279236 
	C1063.347290,670.774292 1062.706299,670.361572 1061.535156,669.475586 
	C1061.535156,682.255737 1061.535156,694.266174 1061.535156,706.639587 
	C1054.268799,706.639587 1047.256104,706.639587 1040.074463,706.639587 
	C1040.074463,664.446777 1040.074463,622.359436 1040.074463,579.859497 
	C1046.982056,579.859497 1053.860352,579.859497 1061.552612,579.859497 
	C1061.552612,597.656494 1061.552612,615.571045 1061.552246,633.981812 
z"/>
<path fill="#FAFAFA" opacity="1.000000" stroke="none" 
	d="
M495.022339,614.970886 
	C505.624695,620.873779 510.833191,629.556335 510.855377,641.634766 
	C503.772614,641.634766 496.993927,641.634766 490.230286,641.634766 
	C484.852997,627.124512 469.654083,621.640991 455.472565,628.948303 
	C451.515045,630.987610 448.274261,633.815552 448.440735,638.339722 
	C448.622711,643.285278 452.614136,645.853760 456.954742,646.915588 
	C463.692902,648.564026 470.633209,649.378113 477.386871,650.973267 
	C484.907532,652.749573 492.603424,654.304626 499.699188,657.227600 
	C508.599823,660.893982 513.620544,668.104980 514.077209,678.072632 
	C514.568298,688.790222 510.594910,697.303833 501.258575,702.724854 
	C489.593109,709.498169 476.614929,710.531067 463.639526,709.156616 
	C456.038727,708.351501 448.240845,706.473755 441.261169,703.414185 
	C430.352997,698.632568 425.882996,688.991699 425.571198,676.920898 
	C432.449341,676.920898 439.335175,676.920898 446.261963,676.920898 
	C449.436798,688.013855 454.639801,692.121643 466.533203,691.958923 
	C472.438721,691.878113 478.472015,691.485291 484.191925,690.143860 
	C490.157593,688.744812 492.978027,684.710571 492.806030,680.065063 
	C492.601196,674.533386 489.013794,671.532471 484.229095,670.391846 
	C473.180817,667.757874 461.987274,665.738281 450.916077,663.193604 
	C443.605225,661.513184 436.630341,658.825195 431.900635,652.542847 
	C422.256042,639.732239 427.280121,621.271912 443.073486,614.442200 
	C460.084747,607.085938 477.531403,607.156189 495.022339,614.970886 
z"/>
<path fill="#FAFAFA" opacity="1.000000" stroke="none" 
	d="
M392.312256,609.829407 
	C406.773987,611.811646 413.889618,621.154602 417.658844,633.698364 
	C418.932831,637.938293 419.709808,642.488770 419.758911,646.907837 
	C419.978973,666.712769 419.854675,686.521545 419.854675,706.669434 
	C412.954712,706.669434 406.045166,706.669434 398.351471,706.669434 
	C398.351471,705.111938 398.350189,703.374756 398.351685,701.637512 
	C398.365082,686.148132 398.646881,670.651917 398.248718,655.173157 
	C398.107483,649.683044 397.126526,643.905579 395.078766,638.846252 
	C392.048645,631.359619 383.262482,627.087524 375.563171,628.011719 
	C364.104431,629.387207 356.149292,635.663269 354.081787,645.499451 
	C353.168396,649.844971 352.741547,654.362488 352.696259,658.808044 
	C352.535187,674.615173 352.633331,690.424927 352.633331,706.624268 
	C345.485596,706.624268 338.461365,706.624268 331.205200,706.624268 
	C331.205200,675.210327 331.205200,643.807434 331.205200,612.139526 
	C338.301392,612.139526 345.363892,612.139526 352.839142,612.139526 
	C352.839142,619.889709 352.839142,627.419922 352.839142,634.950134 
	C360.166748,617.392944 372.008575,607.427551 392.312256,609.829407 
z"/>
<path fill="#FAFAFA" opacity="1.000000" stroke="none" 
	d="
M987.997070,609.232666 
	C1001.196228,609.683777 1012.642944,613.256653 1021.514648,622.969177 
	C1028.090210,630.168030 1031.549072,638.758484 1033.004028,648.631775 
	C1025.753418,648.631775 1018.822876,648.631775 1011.547913,648.631775 
	C1011.356018,647.929810 1011.172363,647.172729 1010.942749,646.429932 
	C1007.216370,634.375244 998.929138,627.732727 987.970581,628.009094 
	C976.713440,628.292847 967.388062,635.104553 964.327393,646.440369 
	C961.884399,655.488770 961.638550,664.822021 964.977661,673.869995 
	C969.420410,685.908508 976.741760,690.446716 990.906921,690.095459 
	C1000.310852,689.862244 1007.391052,683.723694 1010.823425,672.812805 
	C1011.019958,672.187988 1011.129028,671.535645 1011.351257,670.586670 
	C1018.409119,670.586670 1025.484375,670.586670 1033.038086,670.586670 
	C1030.003052,687.334045 1022.159973,699.976990 1005.829041,706.347595 
	C982.353516,715.505310 956.211487,705.776672 945.873840,683.600098 
	C936.115417,662.665771 940.254150,632.966675 958.354858,618.975464 
	C966.999939,612.293091 976.880554,609.718018 987.997070,609.232666 
z"/>
<path fill="#FAFAFA" opacity="1.000000" stroke="none" 
	d="
M677.200378,677.999878 
	C677.200623,655.861145 677.200623,634.222473 677.200623,612.233032 
	C684.406921,612.233032 691.320984,612.233032 698.807129,612.233032 
	C698.807129,621.210388 698.807129,630.349792 698.807129,640.827271 
	C708.719666,617.165894 718.617737,610.142700 737.962402,612.254395 
	C737.962402,618.689270 737.962402,625.147278 737.962402,631.922607 
	C732.843201,632.251404 727.770935,632.629944 722.692688,632.893433 
	C708.215881,633.644653 699.297363,642.483765 699.084534,656.987610 
	C698.842896,673.453064 699.028748,689.924744 699.028748,706.700439 
	C691.688416,706.700439 684.766907,706.700439 677.200134,706.700439 
	C677.200134,697.368835 677.200134,687.934387 677.200378,677.999878 
z"/>
<path fill="#2762E3" opacity="1.000000" stroke="none" 
	d="
M240.968552,646.833191 
	C238.632477,650.063416 236.296402,653.293701 234.076569,656.363220 
	C232.438828,653.951538 230.537704,651.151978 228.276184,647.819702 
	C224.592865,645.515076 221.269989,643.743164 217.947113,641.971191 
	C217.947113,641.971191 217.999054,642.000916 217.843933,641.715332 
	C214.814102,639.947632 216.297836,639.535583 218.167694,638.591492 
	C224.343155,635.473816 230.533005,632.263611 233.192291,624.856079 
	C234.235306,625.140198 235.073380,625.603882 235.945068,626.415283 
	C238.614777,631.811584 242.635498,635.233887 248.039307,637.031799 
	C248.039307,637.031799 247.998596,637.002747 248.151489,637.295166 
	C249.581390,638.371948 250.858398,639.156311 252.126923,639.935425 
	C249.824890,641.466309 247.894409,642.750122 245.963928,644.033875 
	C245.963913,644.033875 246.004303,644.003418 245.678223,643.978027 
	C243.890945,644.912842 242.429749,645.872986 240.968552,646.833191 
z"/>
<path fill="#040F3D" opacity="1.000000" stroke="none" 
	d="
M218.170685,642.236938 
	C221.269989,643.743164 224.592865,645.515076 228.006012,647.614807 
	C226.654816,649.589600 225.213364,651.236572 223.431946,652.947998 
	C225.209534,646.716003 224.900925,646.025635 218.170685,642.236938 
z"/>
<path fill="#040F3D" opacity="1.000000" stroke="none" 
	d="
M241.099640,647.155457 
	C242.429749,645.872986 243.890945,644.912842 245.699066,643.963745 
	C245.416565,646.352051 244.787140,648.729370 244.147919,651.509888 
	C243.168976,650.434570 242.199844,648.956177 241.099640,647.155457 
z"/>
<path fill="#040F3D" opacity="1.000000" stroke="none" 
	d="
M244.075195,652.256348 
	C244.503571,652.660339 244.880524,653.418701 245.255310,654.508911 
	C244.843353,654.097412 244.433563,653.354065 244.075195,652.256348 
z"/>
<path fill="#040F3D" opacity="1.000000" stroke="none" 
	d="
M245.210327,655.061523 
	C245.455307,655.024353 245.696426,655.248596 245.950623,655.729675 
	C245.711288,655.765320 245.458878,655.544067 245.210327,655.061523 
z"/>
<path fill="#040F3D" opacity="1.000000" stroke="none" 
	d="
M232.987350,625.035583 
	C230.533005,632.263611 224.343155,635.473816 218.167694,638.591492 
	C216.297836,639.535583 214.814102,639.947632 217.869598,641.730713 
	C215.343491,641.612732 212.636612,641.193848 208.860199,640.609375 
	C213.373840,638.795349 217.162430,637.872986 220.222504,635.849182 
	C222.586823,634.285461 225.438721,631.474487 225.675552,628.989441 
	C227.751953,607.202881 229.285080,585.364685 230.991287,563.542664 
	C231.236694,560.403931 231.318970,557.223999 231.941162,554.157410 
	C232.181442,552.973083 233.714340,552.051147 234.658340,551.009644 
	C235.439804,552.067261 236.813889,553.071960 236.913773,554.190430 
	C238.403534,570.871826 239.764160,587.565125 241.068405,604.262451 
	C241.662506,611.868530 242.275742,619.483948 242.474991,627.105774 
	C242.586014,631.353333 244.059265,634.393372 247.898544,636.709412 
	C242.635498,635.233887 238.614777,631.811584 236.328003,626.419922 
	C240.932770,627.781921 240.113907,624.524231 239.990631,622.463806 
	C238.704849,600.970459 237.345734,579.481384 235.933319,557.995972 
	C235.857315,556.839600 235.124725,555.726379 234.697769,554.593079 
	C234.371582,554.641846 234.045395,554.690552 233.719223,554.739319 
	C231.838043,578.283630 229.956863,601.827881 228.059204,625.578430 
	C230.085114,625.355286 231.536224,625.195435 232.987350,625.035583 
z"/>
<path fill="#040F3D" opacity="1.000000" stroke="none" 
	d="
M246.348694,643.972229 
	C247.894409,642.750122 249.824890,641.466309 252.126923,639.935425 
	C250.858398,639.156311 249.581390,638.371948 248.130768,637.281189 
	C251.289642,637.822388 254.622131,638.669983 257.954620,639.517578 
	C257.964783,639.813477 257.974945,640.109314 257.985107,640.405151 
	C254.234558,641.573608 250.483994,642.742126 246.348694,643.972229 
z"/>
<path fill="#010101" opacity="1.000000" stroke="none" 
	d="
M792.516357,628.010925 
	C803.993164,630.179260 811.123352,636.770630 813.555481,647.643494 
	C816.154785,659.263733 816.169556,671.001587 808.960754,681.188782 
	C802.340271,690.544678 792.498230,692.233398 781.927490,689.874817 
	C772.049988,687.671021 766.750793,680.533386 765.070007,671.131348 
	C763.941833,664.820374 763.654053,658.143311 764.326294,651.770996 
	C765.750916,638.266052 772.763794,627.177307 792.516357,628.010925 
z"/>
<path fill="#010101" opacity="1.000000" stroke="none" 
	d="
M911.589111,650.991272 
	C896.151611,650.996887 881.178284,650.996887 866.242310,650.996887 
	C865.265930,640.157349 874.276550,629.640930 883.834473,628.139832 
	C897.809692,625.945007 908.334290,628.864990 913.448914,645.339172 
	C914.078186,647.366089 915.661560,649.891296 911.589111,650.991272 
z"/>
<path fill="#010101" opacity="1.000000" stroke="none" 
	d="
M233.192291,624.856079 
	C231.536224,625.195435 230.085114,625.355286 228.059204,625.578430 
	C229.956863,601.827881 231.838043,578.283630 233.719223,554.739319 
	C234.045395,554.690552 234.371582,554.641846 234.697769,554.593079 
	C235.124725,555.726379 235.857315,556.839600 235.933319,557.995972 
	C237.345734,579.481384 238.704849,600.970459 239.990631,622.463806 
	C240.113907,624.524231 240.932770,627.781921 236.294373,626.072205 
	C235.073380,625.603882 234.235306,625.140198 233.192291,624.856079 
z"/>
</svg>